<svg id="Layer_1" data-name="Layer 1" xmlns="http://www.w3.org/2000/svg" xmlns:xlink="http://www.w3.org/1999/xlink" viewBox="0 0 1080 1080"><defs><style>.cls-1{font-size:47.42px;font-family:MyriadPro-Regular, Myriad Pro;}.cls-2{letter-spacing:-0.01em;}.cls-3{letter-spacing:-0.04em;}.cls-4{letter-spacing:-0.03em;}.cls-5{letter-spacing:0.01em;}.cls-6{letter-spacing:0.01em;}.cls-7,.cls-8{fill:none;}.cls-13,.cls-7,.cls-8,.cls-9{stroke-miterlimit:10;}.cls-7{stroke-width:18px;stroke:url(#linear-gradient);}.cls-8{stroke-width:12px;stroke:url(#linear-gradient-2);}.cls-13,.cls-9{font-size:140.59px;stroke-width:0.5px;font-family:Montserrat-Medium, Montserrat;font-weight:500;}.cls-9{fill:#a1bdc6;stroke:#a1bdc6;}.cls-10{letter-spacing:-0.02em;}.cls-11{letter-spacing:-0.01em;}.cls-12{letter-spacing:-0.02em;}.cls-13{fill:#133441;stroke:#000;}</style><linearGradient id="linear-gradient" x1="448.92" y1="347.97" x2="448.92" y2="719.39" gradientUnits="userSpaceOnUse"><stop offset="0" stop-color="#33596b"/><stop offset="1" stop-color="#133441"/></linearGradient><linearGradient id="linear-gradient-2" x1="289.34" y1="304.1" x2="289.34" y2="571.8" gradientTransform="translate(106.76 897.76) rotate(-90)" xlink:href="#linear-gradient"/></defs><text class="cls-1" transform="translate(606.24 456.61)"><tspan class="cls-2">T</tspan><tspan x="23.24" y="0">he IT &amp;</tspan><tspan class="cls-3" x="157.01" y="0"> </tspan><tspan class="cls-4" x="165.36" y="0">W</tspan><tspan x="203.91" y="0">eb </tspan><tspan class="cls-5" x="264.7" y="0">S</tspan><tspan x="288.37" y="0">ocie</tspan><tspan class="cls-6" x="370.5" y="0">t</tspan><tspan x="386.62" y="0">y</tspan></text><path class="cls-7" d="M541.78,710.39a176.71,176.71,0,0,1,0-353.42"/><path class="cls-8" d="M672.56,541.49a127.85,127.85,0,0,1-255.7,0"/><text class="cls-9" transform="translate(45.48 586.62)"><tspan class="cls-10">K</tspan><tspan x="97.57" y="0">ONN</tspan><tspan class="cls-11" x="443.98" y="0">E</tspan><tspan class="cls-12" x="537.05" y="0">X</tspan><tspan x="628.43" y="0">IONS</tspan></text><text class="cls-13" transform="translate(43.48 584.62)"><tspan class="cls-10">K</tspan><tspan x="97.57" y="0">ONN</tspan><tspan class="cls-11" x="443.98" y="0">E</tspan><tspan class="cls-12" x="537.05" y="0">X</tspan><tspan x="628.43" y="0">IONS</tspan></text></svg>